<?xml version="1.0" standalone="no"?>
<!DOCTYPE svg PUBLIC "-//W3C//DTD SVG 20010904//EN"
 "http://www.w3.org/TR/2001/REC-SVG-20010904/DTD/svg10.dtd">
<svg version="1.0" xmlns="http://www.w3.org/2000/svg"
 width="900.000000pt" height="900.000000pt" viewBox="0 0 900.000000 900.000000"
 preserveAspectRatio="xMidYMid meet">
<metadata>
Created by potrace 1.11, written by Peter Selinger 2001-2013
</metadata>
<g transform="translate(0.000000,900.000000) scale(0.100000,-0.100000)"
fill="#000000" stroke="none">
<path d="M1500 8789 c-255 -28 -485 -118 -681 -266 -196 -148 -312 -308 -389
-539 -61 -182 -97 -466 -85 -659 4 -55 62 -532 129 -1060 l122 -960 -64 -3
c-35 -2 -66 -2 -67 0 -2 2 -61 440 -130 973 l-127 970 5 200 c3 150 10 227 26
308 38 189 104 359 183 475 l29 42 -45 0 -45 0 -56 -84 c-137 -206 -202 -447
-212 -781 l-5 -180 211 -1662 c116 -913 211 -1669 211 -1678 0 -31 18 -5 110
157 51 90 102 177 114 193 26 35 2602 4422 2611 4448 6 13 2 17 -18 17 -15 0
-407 23 -872 50 -465 28 -854 49 -863 49 -9 -1 -51 -5 -92 -10z"/>
<path d="M6546 6863 c-453 -1104 -478 -1168 -460 -1180 293 -205 453 -331 681
-536 296 -268 687 -671 911 -937 295 -352 599 -800 842 -1240 76 -137 253
-493 300 -603 22 -50 37 -73 41 -64 4 7 15 67 24 132 32 226 19 541 -31 731
-8 33 -235 736 -505 1564 -270 828 -576 1768 -680 2089 -126 385 -205 613
-234 670 -82 163 -229 364 -362 494 l-49 47 -478 -1167z"/>
<path d="M535 3708 c3 -18 55 -427 115 -908 61 -481 120 -912 130 -957 85
-360 342 -767 670 -1061 113 -101 260 -214 356 -273 102 -63 280 -145 365
-169 350 -98 496 -120 787 -120 284 0 404 15 743 96 102 24 194 44 203 44 17
0 3462 831 3877 935 195 49 284 79 404 135 137 64 139 55 -26 150 -869 504
-2020 1004 -3097 1344 -773 245 -1320 373 -2242 526 -611 101 -1682 241 -2030
266 -47 3 -114 10 -150 15 -109 15 -112 14 -105 -23z"/>
</g>
</svg>
